# xmcd
#
# Track frame offsets: 
#        150
#        16123
#        35504
#        65973
#        79670
#        99384
#        120947
#        135444
#        161366
#        192304
#
# Disc length: 2966 seconds
#
# Revision: 0
# Processed by: cddbd v1.5.2PL0 Copyright (c) Steve Scherf et al.
# Submitted via: ExactAudioCopy v1.3
#
DISCID=750b940a
DTITLE=Shawn James - Live At The Heartbreak House
DYEAR=2018
DGENRE=Blues
TTITLE0=The Wanderer
TTITLE1=Flow
TTITLE2=Number Of The Beast
TTITLE3=Crossroads
TTITLE4=Thief and The Moon
TTITLE5=Pendulum Swing
TTITLE6=The Shadow
TTITLE7=Son Of The Wolf
TTITLE8=Midnight Dove
TTITLE9=Through The Valley
EXTD=
EXTT0=
EXTT1=
EXTT2=
EXTT3=
EXTT4=
EXTT5=
EXTT6=
EXTT7=
EXTT8=
EXTT9=
PLAYORDER=
